<svg xmlns="http://www.w3.org/2000/svg" viewBox="0 0 400.66 229.59"><defs><style>.cls-1{fill:#fff;}.cls-2{fill:#1d1d1b;}.cls-3{opacity:0.3;}.cls-4,.cls-5{fill:none;stroke:#1d1d1b;stroke-miterlimit:10;}.cls-4{stroke-width:1.14px;}.cls-5{stroke-width:0.57px;}</style></defs><g id="Layer_2" data-name="Layer 2"><g id="OBJECTS"><path class="cls-1" d="M92.53,209.69l18,19a1.15,1.15,0,0,0,1.32.25l3.79-1.75a4.47,4.47,0,0,0,2.58-4.34l-1.29-20.26Z"/><path class="cls-2" d="M92.64,209.72c3.87,3.61,7.4,6.84,10.72,10.1,1.67,1.62,3.24,3.25,4.74,5,.75.87,1.49,1.76,2.23,2.66l.56.68c.12.14.12.15.19.2a.56.56,0,0,0,.2.11.59.59,0,0,0,.23,0l.12,0,.21-.08.84-.33c1.08-.46,2.27-.91,3.25-1.43a4,4,0,0,0,1.83-2.63,5.27,5.27,0,0,0,0-1.68l-.2-1.79-.43-3.57c-.63-4.75-1-9.53-1.39-14.3l1.53,1.08c-1.94.59-3.87,1.16-5.84,1.66s-4,1-6,1.46Zm-.22-.06L98,207.59l6-2.17c2-.71,4.12-1.43,6.23-2.1s4.23-1.31,6.35-1.9l1.48-.42.06,1.49c.18,4.79.46,9.57.43,14.36l0,3.6,0,1.8a6.12,6.12,0,0,1-.12,1.89,5,5,0,0,1-2.19,3.07c-.57.35-1.1.55-1.64.84l-1.6.82-.79.42-.2.11a1.34,1.34,0,0,1-.3.12,1.7,1.7,0,0,1-1.3-.14A2.14,2.14,0,0,1,110,229l-.67-.63c-.9-.84-1.82-1.68-2.71-2.55-1.8-1.73-3.52-3.57-5.14-5.42C98.19,216.71,95.14,213,92.42,209.66Z"/><path class="cls-1" d="M92.53,209.69l18,19a1.15,1.15,0,0,0,1.32.25l3.79-1.75a4.47,4.47,0,0,0,2.58-4.34l-1.29-20.26Z"/><path class="cls-2" d="M92.64,209.72c3.87,3.61,7.4,6.84,10.72,10.1,1.67,1.62,3.24,3.25,4.74,5,.75.87,1.49,1.76,2.23,2.66l.56.68c.12.14.12.15.19.2a.56.56,0,0,0,.2.11.59.59,0,0,0,.23,0l.12,0,.21-.08.84-.33c1.08-.46,2.27-.91,3.25-1.43a4,4,0,0,0,1.83-2.63,5.27,5.27,0,0,0,0-1.68l-.2-1.79-.43-3.57c-.63-4.75-1-9.53-1.39-14.3l1.53,1.08c-1.94.59-3.87,1.16-5.84,1.66s-4,1-6,1.46Zm-.22-.06L98,207.59l6-2.17c2-.71,4.12-1.43,6.23-2.1s4.23-1.31,6.35-1.9l1.48-.42.06,1.49c.18,4.79.46,9.57.43,14.36l0,3.6,0,1.8a6.12,6.12,0,0,1-.12,1.89,5,5,0,0,1-2.19,3.07c-.57.35-1.1.55-1.64.84l-1.6.82-.79.42-.2.11a1.34,1.34,0,0,1-.3.12,1.7,1.7,0,0,1-1.3-.14A2.14,2.14,0,0,1,110,229l-.67-.63c-.9-.84-1.82-1.68-2.71-2.55-1.8-1.73-3.52-3.57-5.14-5.42C98.19,216.71,95.14,213,92.42,209.66Z"/><path class="cls-1" d="M68.07,141.63s11.61,37.54,20.39,54.54l37.92-31.48S111.58,175,80,134.8a.42.42,0,0,0-.16-.09,3.29,3.29,0,0,0-.46-.23,6.34,6.34,0,0,0-.74-.23,4.9,4.9,0,0,0-1-.13,5.93,5.93,0,0,0-1.26.08,7.72,7.72,0,0,0-1.48.4,9.85,9.85,0,0,0-1.69.84,15.06,15.06,0,0,0-1.89,1.39,23.33,23.33,0,0,0-2,2l-.77.91-.38.49a1,1,0,0,0-.26.46.66.66,0,0,0,0,.2A3.37,3.37,0,0,0,68.07,141.63Z"/><path class="cls-2" d="M68.18,141.59q2.17,7,4.79,13.76c1.69,4.56,3.51,9.06,5.26,13.58l5.21,13.57c1.75,4.51,3.46,9,5.55,13.4l-.91-.19c3.24-2.52,6.47-5.06,9.63-7.69s6.29-5.28,9.43-7.93l9.28-8.1c3.08-2.73,6.21-5.39,9.32-8.07l1.21,1.59c-3.28,1.83-6.65,1.59-9.83,1l-2.35-.59c-.76-.26-1.5-.55-2.25-.83-.38-.14-.76-.26-1.12-.43l-1.07-.52-2.14-1.06a68,68,0,0,1-14.78-11.55c-1.1-1.1-2.2-2.21-3.27-3.34s-2-2.35-3-3.53c-2.07-2.32-3.86-4.86-5.74-7.31L80,135.5l-.18-.23-.08-.12,0-.05h0s-.06,0-.14-.07l-.23-.12a4.16,4.16,0,0,0-1-.31,3.51,3.51,0,0,0-1.07-.1,6.65,6.65,0,0,0-1.09.07,7.68,7.68,0,0,0-2.12.71A13,13,0,0,0,70.36,138a16.6,16.6,0,0,0-1.59,1.66c-.24.29-.5.6-.71.89S68.11,141.24,68.18,141.59Zm-.22.07-.16-.57a.73.73,0,0,1,0-.64c.24-.34.47-.62.72-.93a18.07,18.07,0,0,1,1.57-1.71,14,14,0,0,1,3.61-3A8.92,8.92,0,0,1,76,134a6.94,6.94,0,0,1,1.2-.17,4.23,4.23,0,0,1,1.23,0,5.34,5.34,0,0,1,1.23.28l.29.14a1.14,1.14,0,0,1,.37.2l.11.09,0,.05.1.11.19.22,1.53,1.72c2.06,2.29,4,4.63,6.24,6.79,1.06,1.11,2.14,2.2,3.18,3.32L95,149.88l1.65,1.59c.56.52,1.15,1,1.73,1.49,1.17,1,2.29,2,3.5,2.92l3.64,2.71,3.84,2.39,2,1,1,.51c.33.16.68.28,1,.42l2.07.81,2.13.58c.71.19,1.44.23,2.15.36s1.44.05,2.16.1a14.21,14.21,0,0,0,2.09-.29l.51-.12.48-.16a4.9,4.9,0,0,0,.46-.18c.14-.07.31-.14.37-.18l1.22,1.59c-3.21,2.56-6.4,5.15-9.65,7.67l-9.67,7.64c-3.18,2.59-6.39,5.16-9.53,7.8s-6.25,5.33-9.33,8.05l-.54.48-.36-.66c-2.35-4.3-4.41-8.73-6.31-13.21s-3.6-9.06-5.14-13.67-2.91-9.29-4.31-13.94S69.4,146.3,68,141.66Z"/><g class="cls-3"><path class="cls-1" d="M68.07,141.63s11.61,37.54,20.39,54.54l37.92-31.48S111.58,175,80,134.8a.42.42,0,0,0-.16-.09,3.29,3.29,0,0,0-.46-.23,6.34,6.34,0,0,0-.74-.23,4.9,4.9,0,0,0-1-.13,5.93,5.93,0,0,0-1.26.08,7.72,7.72,0,0,0-1.48.4,9.85,9.85,0,0,0-1.69.84,15.06,15.06,0,0,0-1.89,1.39,23.33,23.33,0,0,0-2,2l-.77.91-.38.49a1,1,0,0,0-.26.46.66.66,0,0,0,0,.2A3.37,3.37,0,0,0,68.07,141.63Z"/><path class="cls-2" d="M68.18,141.59q2.17,7,4.79,13.76c1.69,4.56,3.51,9.06,5.26,13.58l5.21,13.57c1.75,4.51,3.46,9,5.55,13.4l-.91-.19c3.24-2.52,6.47-5.06,9.63-7.69s6.29-5.28,9.43-7.93l9.28-8.1c3.08-2.73,6.21-5.39,9.32-8.07l1.21,1.59c-3.28,1.83-6.65,1.59-9.83,1l-2.35-.59c-.76-.26-1.5-.55-2.25-.83-.38-.14-.76-.26-1.12-.43l-1.07-.52-2.14-1.06a68,68,0,0,1-14.78-11.55c-1.1-1.1-2.2-2.21-3.27-3.34s-2-2.35-3-3.53c-2.07-2.32-3.86-4.86-5.74-7.31L80,135.5l-.18-.23-.08-.12,0-.05h0s-.06,0-.14-.07l-.23-.12a4.16,4.16,0,0,0-1-.31,3.51,3.51,0,0,0-1.07-.1,6.65,6.65,0,0,0-1.09.07,7.68,7.68,0,0,0-2.12.71A13,13,0,0,0,70.36,138a16.6,16.6,0,0,0-1.59,1.66c-.24.29-.5.6-.71.89S68.11,141.24,68.18,141.59Zm-.22.07-.16-.57a.73.73,0,0,1,0-.64c.24-.34.47-.62.72-.93a18.07,18.07,0,0,1,1.57-1.71,14,14,0,0,1,3.61-3A8.92,8.92,0,0,1,76,134a6.94,6.94,0,0,1,1.2-.17,4.23,4.23,0,0,1,1.23,0,5.34,5.34,0,0,1,1.23.28l.29.14a1.14,1.14,0,0,1,.37.2l.11.09,0,.05.1.11.19.22,1.53,1.72c2.06,2.29,4,4.63,6.24,6.79,1.06,1.11,2.14,2.2,3.18,3.32L95,149.88l1.65,1.59c.56.52,1.15,1,1.73,1.49,1.17,1,2.29,2,3.5,2.92l3.64,2.71,3.84,2.39,2,1,1,.51c.33.16.68.28,1,.42l2.07.81,2.13.58c.71.19,1.44.23,2.15.36s1.44.05,2.16.1a14.21,14.21,0,0,0,2.09-.29l.51-.12.48-.16a4.9,4.9,0,0,0,.46-.18c.14-.07.31-.14.37-.18l1.22,1.59c-3.21,2.56-6.4,5.15-9.65,7.67l-9.67,7.64c-3.18,2.59-6.39,5.16-9.53,7.8s-6.25,5.33-9.33,8.05l-.54.48-.36-.66c-2.35-4.3-4.41-8.73-6.31-13.21s-3.6-9.06-5.14-13.67-2.91-9.29-4.31-13.94S69.4,146.3,68,141.66Z"/></g><path class="cls-1" d="M95.48,187.93l88.31-67.22L332,16.25A106.65,106.65,0,0,1,352.65,5.13a47.31,47.31,0,0,1,9.82-2.73,20.82,20.82,0,0,1,9,.37s23.78-7.88,27.85,6.58S383.82,42.5,383.82,42.5L268.1,124.62s-82,55.57-109.33,66.46S80.29,217.4,87.35,207.41A46.16,46.16,0,0,0,95.48,187.93Z"/><path class="cls-2" d="M95.33,187.84c10.86-8.61,21.85-17.18,32.83-25.8l33.15-25.77c11.11-8.55,22.15-17.27,33.64-25.16C206.34,103,217.69,94.9,229.13,86.9,252,70.83,275,55.05,298,39.18c11.52-7.89,22.95-15.9,34.42-23.9a110.31,110.31,0,0,1,18.48-10A52.37,52.37,0,0,1,361,2.09a22.7,22.7,0,0,1,10.65.12h-.36A51.78,51.78,0,0,1,379.92.32a34,34,0,0,1,8.9,0A14.5,14.5,0,0,1,397,4a11.45,11.45,0,0,1,2.57,3.87,15.8,15.8,0,0,1,1,4.48,22.79,22.79,0,0,1-1.31,8.92,43.15,43.15,0,0,1-3.8,8.07,74.76,74.76,0,0,1-10.91,14l0,.05-.08.06q-37.34,27-74.88,53.8L272.08,124c-1.56,1.1-3.13,2.24-4.75,3.3l-4.79,3.22-9.6,6.39q-9.62,6.38-19.33,12.59c-13,8.3-26,16.5-39.24,24.29-3.32,2-6.64,3.91-10,5.78l-5,2.83-5.1,2.74c-1.69.93-3.42,1.8-5.16,2.65l-2.59,1.29c-.86.44-1.74.86-2.64,1.23-1.79.77-3.57,1.6-5.37,2.3s-3.6,1.38-5.41,2c-7.23,2.67-14.55,5.08-21.9,7.36s-14.76,4.4-22.26,6.22c-3.74.91-7.51,1.73-11.34,2.33a53.27,53.27,0,0,1-5.8.62,15.08,15.08,0,0,1-3-.13,4.67,4.67,0,0,1-1.55-.47,2,2,0,0,1-.73-.61,1.67,1.67,0,0,1-.32-1,3.17,3.17,0,0,1,.59-1.6c.29-.45.55-.79.83-1.2.55-.77,1-1.58,1.56-2.38a47.71,47.71,0,0,0,2.69-5,48.73,48.73,0,0,0,2.1-5.33c.29-.91.56-1.83.79-2.75.12-.46.23-.93.33-1.4l.13-.7.07-.35A4,4,0,0,1,95.33,187.84Zm.3.17a2,2,0,0,1,0,.3l-.06.36-.12.72c-.08.47-.17,1-.28,1.42-.2.94-.45,1.87-.72,2.8a49.38,49.38,0,0,1-4.53,10.66c-.49.83-1,1.67-1.52,2.48s-1.17,1.62-1.16,2.26.83.86,1.71,1a14.11,14.11,0,0,0,2.76,0,51.44,51.44,0,0,0,5.63-.77c3.75-.72,7.47-1.62,11.17-2.59a455.7,455.7,0,0,0,43.65-14.4q2.69-1,5.34-2.09c1.77-.72,3.47-1.54,5.2-2.31l1.29-.59,1.28-.65,2.54-1.3c1.7-.87,3.4-1.74,5.06-2.69l5-2.78,5-2.88c3.32-1.9,6.6-3.9,9.88-5.88,13.1-8,26.07-16.19,38.94-24.55l19.26-12.63,9.59-6.36,4.79-3.21c1.59-1,3.13-2.16,4.71-3.27l37.68-26.55q37.67-26.55,75.49-52.9l-.12.11a73.55,73.55,0,0,0,10.82-13.34,41,41,0,0,0,3.77-7.67A21.1,21.1,0,0,0,399,12.45a14.46,14.46,0,0,0-.83-4A10.17,10.17,0,0,0,396,5a13.16,13.16,0,0,0-7.4-3.45,31.71,31.71,0,0,0-8.54,0,49.93,49.93,0,0,0-8.43,1.78l-.19.06-.17-.05a21.53,21.53,0,0,0-10.1-.15,51.5,51.5,0,0,0-9.88,3,84.22,84.22,0,0,0-9.37,4.54c-3,1.69-6,3.51-8.86,5.47C321.71,24.3,310.31,32.39,299,40.58c-22.68,16.29-45.27,32.69-68.09,48.79S184.85,121.05,163,138.11l-33.51,25C118.22,171.38,107,179.71,95.63,188Z"/><path class="cls-2" d="M371.46,2.77a20.82,20.82,0,0,0-9-.37,47.31,47.31,0,0,0-9.82,2.73l-14,9.81s1.65,9.67,31.64-10.76Z"/><path class="cls-2" d="M371.4,2.79c-.7-.1-1.55-.27-2.32-.33s-1.59-.07-2.38-.06a29.91,29.91,0,0,0-4.72.53,38.93,38.93,0,0,0-4.62,1.14c-1.53.45-3,1-4.55,1.48l.1,0c-2.39,1.56-4.81,3.07-7.17,4.68s-4.67,3.29-7,5l.12-.29a2.57,2.57,0,0,0,1.29,1.39,5.18,5.18,0,0,0,2,.46c.36,0,.71,0,1.07,0l1.07-.14a5.5,5.5,0,0,0,1.06-.2l1.07-.25c.71-.15,1.39-.45,2.09-.67a17.88,17.88,0,0,0,2.06-.8c.67-.29,1.36-.56,2-.88l2-1c1.34-.62,2.64-1.35,3.95-2.05s2.6-1.43,3.89-2.18c2.6-1.45,5.1-3.07,7.69-4.56l0,0Zm.11,0c-.35.47-.72,1-1.13,1.52h0l0,0c-1.2.89-2.42,1.76-3.64,2.63-.61.42-1.21.88-1.84,1.29L363,9.44c-1.27.8-2.51,1.63-3.83,2.35s-2.59,1.52-4,2.14l-2,1c-.69.31-1.4.57-2.1.85a17.57,17.57,0,0,1-2.14.77c-.73.21-1.43.5-2.19.64a15.47,15.47,0,0,1-2.26.39l-1.16.1c-.39,0-.78,0-1.17-.06a5.78,5.78,0,0,1-2.29-.69A3.2,3.2,0,0,1,338.32,15l0-.19.16-.1c2.39-1.56,4.76-3.16,7.08-4.82s4.58-3.42,6.87-5.13l0,0,.07,0a40.21,40.21,0,0,1,9.34-2.65,24.14,24.14,0,0,1,4.88-.26,16.46,16.46,0,0,1,2.42.28A10.84,10.84,0,0,1,371.51,2.76Z"/><path class="cls-1" d="M224.11,153.48s13.4-1.06,17.5,5c3.62,5.35,24.08,41.64,28.76,49.95a2.12,2.12,0,0,0,2.73.9l7.4-3.33a10.82,10.82,0,0,0,6.15-7.65L308,95.81l-9.1,6.25Z"/><path class="cls-2" d="M224.22,153.44c.07-.07,0-.1.08-.1h.2l.4,0,.79,0,1.59-.06c1.07,0,2.13,0,3.19.11a26,26,0,0,1,6.31,1.21,10.34,10.34,0,0,1,5.39,3.73c1.21,1.78,2.3,3.58,3.42,5.38,4.44,7.2,8.65,14.52,12.88,21.83S266.9,200.1,271,207.51c.3.56.37.7.64.88a1.18,1.18,0,0,0,.86.18,9.11,9.11,0,0,0,1.28-.5l1.45-.63,2.92-1.25c.94-.42,2-.82,2.83-1.26a10.1,10.1,0,0,0,4.16-4.11,10.45,10.45,0,0,0,1-2.8l.7-3.09q2.81-12.36,5.32-24.78l2.51-12.42,2.41-12.44c3.13-16.6,6.46-33.16,9.82-49.72l1.77,1.18L298.22,104l-10.34,7.1c-6.92,4.68-13.84,9.33-20.88,14l-21.22,14Q235.09,146.13,224.22,153.44Zm-.21.07q10.11-7.09,20.38-14.44l20.72-14.84c6.94-5,14-10,21.07-14.88L296.81,102l10.54-7.17,2.37-1.61L309.13,96c-3.54,16.52-7.09,33-10.85,49.51l-2.76,12.36-2.66,12.39c-1.78,8.26-3.43,16.54-5,24.84l-.59,3.11a11.49,11.49,0,0,1-5.6,8c-1,.56-1.94.94-2.91,1.41L275.89,209l-1.44.67-.71.34a3.8,3.8,0,0,1-.94.35,3,3,0,0,1-2.18-.38,2.81,2.81,0,0,1-.85-.76,7.69,7.69,0,0,1-.48-.77c-4.24-7.31-8.36-14.68-12.48-22l-12.43-22.07c-1-1.82-2.09-3.67-3.2-5.42a9.84,9.84,0,0,0-4.73-3.53,25.16,25.16,0,0,0-6-1.47c-1-.14-2.09-.21-3.14-.28l-1.57,0h-1.38A.47.47,0,0,1,224,153.51Z"/><path class="cls-2" d="M280.59,206.06l-4.93,2.42-2.53,1.22a2.52,2.52,0,0,1-2.95-.76,6.59,6.59,0,0,1-.41-.63l-.35-.59-.7-1.17-1.4-2.36-2.78-4.74L259,190l-5.5-9.5-11.09-18.91q-.69-1.18-1.41-2.31a7.54,7.54,0,0,0-1.62-1.8,13.39,13.39,0,0,0-4.58-2.23,34.54,34.54,0,0,0-10.6-1.12l-2.35.07,1.92-1.26c6.32-4.17,12.64-8.32,18.87-12.61,3.13-2.12,6.22-4.3,9.33-6.45s6.21-4.31,9.29-6.51l18.48-13.16,18.58-13,2.11-1.48-.44,2.56c-1.5,8.71-2.94,17.44-4.5,26.15s-3.13,17.4-4.76,26.07-3.25,17.33-5,25.92S282.36,197.57,280.59,206.06Zm-.18-.14c1.31-8.84,2.67-17.58,4.06-26.3s2.83-17.37,4.23-26,2.9-17.28,4.43-25.89,3.14-17.2,4.7-25.81l1.68,1.07-18.82,12.68-18.91,12.54c-3.15,2.09-6.27,4.22-9.4,6.35s-6.27,4.23-9.37,6.4c-6.23,4.28-12.38,8.69-18.53,13.09l-.42-1.19a35.65,35.65,0,0,1,11.17.79,14.63,14.63,0,0,1,5.29,2.38,7.35,7.35,0,0,1,1.13,1,11.82,11.82,0,0,1,.94,1.18c.53.79,1,1.57,1.5,2.35,3.84,6.26,7.41,12.65,11,19l5.37,9.58,5.25,9.64,5.18,9.61a1.71,1.71,0,0,0,2,.61l2.48-1Z"/><polygon class="cls-1" points="70.63 141 92.19 191.82 93.74 190.29 71.92 139.32 70.63 141"/><path class="cls-2" d="M70.67,141q2.91,6.38,5.67,12.7c1.82,4.22,3.68,8.43,5.42,12.65L87,179.08q2.63,6.36,5.42,12.67l-.33-.07,1.53-1.56,0,.26-5.6-12.68c-1.84-4.24-3.71-8.47-5.5-12.72s-3.61-8.51-5.37-12.78-3.52-8.55-5.22-12.85l.17,0Zm-.08,0,1.25-1.74.1-.14.07.16q2.89,6.3,5.69,12.64t5.54,12.71c1.84,4.23,3.61,8.5,5.41,12.76L94,190.2l.06.14-.11.11L92.33,192l-.22.21L92,191.9q-2.61-6.41-5.36-12.74l-5.59-12.7c-1.85-4.24-3.58-8.5-5.36-12.75S72.24,145.22,70.59,141Z"/><path class="cls-1" d="M109.44,189.21l-58.88-7.76a2.52,2.52,0,0,0-2.09.7L43,187.5a.5.5,0,0,0,.16.83l44.21,19.08Z"/><path class="cls-2" d="M109.33,189.24c-10.44-1.09-20.28-2-29.93-3.13-4.83-.53-9.51-1.28-14.28-2.07s-9.59-1.61-14.46-2.23a2.23,2.23,0,0,0-1.55.29,12.72,12.72,0,0,0-1.3,1.2l-2.61,2.63-1.29,1.33-.58.61s0,0,0,0l3.44,1.37c4.6,1.8,9.2,3.6,13.76,5.51l13.67,5.7c4.54,1.93,9.06,3.93,13.56,5.95l-1.16.16c3.6-2.86,7.22-5.65,11-8.46S105.35,192.34,109.33,189.24Zm.22-.07c-3.39,3-6.85,6.12-10.42,9.37s-7.3,6.54-11.06,9.74l-.51.44-.65-.27c-4.56-1.9-9.11-3.81-13.64-5.79l-13.52-6c-4.51-2-9-4.12-13.45-6.23L43,188.83a1,1,0,0,1-.59-.67,1,1,0,0,1,.15-.88,2.7,2.7,0,0,1,.22-.23l.18-.16.34-.31,1.36-1.26,2.69-2.54.67-.64a3.93,3.93,0,0,1,.77-.65,3,3,0,0,1,2-.36c4.91.66,9.87,1.14,14.9,1.64s10.13,1,15.09,1.79C90.67,186,100.41,187.68,109.55,189.17Z"/><path class="cls-1" d="M109.44,189.21l-58.88-7.76a2.52,2.52,0,0,0-2.09.7L43,187.5a.5.5,0,0,0,.16.83l44.21,19.08Z"/><path class="cls-2" d="M109.33,189.24c-10.44-1.09-20.28-2-29.93-3.13-4.83-.53-9.51-1.28-14.28-2.07s-9.59-1.61-14.46-2.23a2.23,2.23,0,0,0-1.55.29,12.72,12.72,0,0,0-1.3,1.2l-2.61,2.63-1.29,1.33-.58.61s0,0,0,0l3.44,1.37c4.6,1.8,9.2,3.6,13.76,5.51l13.67,5.7c4.54,1.93,9.06,3.93,13.56,5.95l-1.16.16c3.6-2.86,7.22-5.65,11-8.46S105.35,192.34,109.33,189.24Zm.22-.07c-3.39,3-6.85,6.12-10.42,9.37s-7.3,6.54-11.06,9.74l-.51.44-.65-.27c-4.56-1.9-9.11-3.81-13.64-5.79l-13.52-6c-4.51-2-9-4.12-13.45-6.23L43,188.83a1,1,0,0,1-.59-.67,1,1,0,0,1,.15-.88,2.7,2.7,0,0,1,.22-.23l.18-.16.34-.31,1.36-1.26,2.69-2.54.67-.64a3.93,3.93,0,0,1,.77-.65,3,3,0,0,1,2-.36c4.91.66,9.87,1.14,14.9,1.64s10.13,1,15.09,1.79C90.67,186,100.41,187.68,109.55,189.17Z"/><polygon class="cls-1" points="344.3 20 126.22 174.89 124.97 170.44 336.79 18.91 344.3 20"/><path class="cls-2" d="M344.41,20,290.65,58.75,263.5,78.28c-9,6.52-18.24,13-27.35,19.5l-55.1,38.64-13.69,9.67-13.62,9.73c-9.09,6.47-18.11,13-27.17,19.56l-.69.5-.24-.83-1.29-4.43-.13-.43.37-.27q26.29-19.2,52.71-38.23c17.61-12.69,35.2-25.4,52.89-38l26.51-18.9L283.3,56l26.64-18.71,26.72-18.6.08-.05h.09Zm-.22.05-7.43-.89.16,0L310.69,38.38,284.38,57.55,258,76.65l-26.44,19c-17.61,12.68-35.33,25.22-53,37.79S143.12,158.51,125.34,171l.25-.7,1.21,4.46-.93-.33c9.11-6.37,18.26-12.72,27.34-19.16l13.65-9.63,13.57-9.7,53.94-38.8c9.06-6.41,18-12.83,27.17-19.21l27.37-19.2Z"/><path class="cls-1" d="M174.05,123.05,1.62,93.06a1,1,0,0,1-.57-1.58l6.56-7.66a11.22,11.22,0,0,1,8.05-3.89l257.75-10.4s19.36.56-.65,16.18-100.37,67-100.37,67S190.08,134.54,174.05,123.05Z"/><path class="cls-2" d="M174,123.15c-49.59-7.86-98.84-16.22-148.07-24.87L7.49,95l-4.61-.84-1.15-.21-.32-.07a1.39,1.39,0,0,1-.5-.19,1.72,1.72,0,0,1-.73-.78,1.8,1.8,0,0,1-.16-1,1.85,1.85,0,0,1,.44-.92L1.23,90l6.2-7.09a12,12,0,0,1,4.09-2.79,12.67,12.67,0,0,1,4.82-.9l9.38-.3,18.75-.62q37.52-1.33,75-3.1l75-3.51,75-3.24,2.34-.09,1.17,0h.3a1.11,1.11,0,0,1,.19,0h.17l.63,0a17,17,0,0,1,4.91,1.16A7.55,7.55,0,0,1,281.54,71,4.62,4.62,0,0,1,283,73.75a5.68,5.68,0,0,1-.4,2.88,11.32,11.32,0,0,1-1.24,2.31,35.3,35.3,0,0,1-6.82,6.88c-1.23,1-2.51,1.92-3.77,2.88s-2.52,1.87-3.8,2.78c-10.2,7.3-20.61,14.25-31.07,21.12s-21,13.7-31.48,20.47-21.11,13.43-31.71,20.09l-3.52,2.22,2.86-3a39,39,0,0,0,5.07-6.74,25.07,25.07,0,0,0,3.1-7.81,13.69,13.69,0,0,0-.8-8.24A16.35,16.35,0,0,0,174,123.15Zm.09-.21a20.19,20.19,0,0,1,3.26,2.85,17,17,0,0,1,1.36,1.69,14.65,14.65,0,0,1,1.06,1.9,14.19,14.19,0,0,1,1,8.53,25.22,25.22,0,0,1-3,8.12,38.42,38.42,0,0,1-5.06,7.06l-.67-.82q15.72-10.26,31.35-20.63t31.24-20.78q7.78-5.23,15.52-10.55c5.15-3.53,10.31-7.06,15.36-10.72,1.27-.9,2.53-1.82,3.76-2.76S271.84,85,273,84a33.62,33.62,0,0,0,6.34-6.39,5.57,5.57,0,0,0,1.24-3.53c-.1-1-1.05-1.81-2.33-2.34a14.26,14.26,0,0,0-4.19-1l-.54,0H273l-1.17.05-2.35.1-75,2.81-75,2.55q-37.51,1.26-75,3l-18.75.89-9.37.46a10.62,10.62,0,0,0-7.9,3.39l-6,7.13-.76.9c-.09.12-.06.13,0,.21a.13.13,0,0,0,.06,0l0,0,.26,0,1.16.19,4.64.77,18.53,3.13C75.72,104.87,125.08,113.66,174.1,122.94Z"/><path class="cls-2" d="M272.86,85.77c-4,3.15-8,6.16-12.11,9.08s-8.21,5.82-12.34,8.7c-8.28,5.72-16.62,11.34-25,17s-16.77,11.12-25.19,16.63l-25.31,16.45L166.2,158l5.46-5.95a38.19,38.19,0,0,0,4.91-6.68,24.06,24.06,0,0,0,3-7.64,12.94,12.94,0,0,0-.83-7.81,12.8,12.8,0,0,0-.94-1.75,14.46,14.46,0,0,0-1.24-1.59,19.14,19.14,0,0,0-3-2.72l.39.16-46-8.4q-11.51-2.13-23-4.14l-23-4.07c-15.37-2.63-30.74-5.28-46.13-7.82L12.6,95.69l-5.77-1L4,94.24,2.5,94l-.72-.12c-.14,0-.19,0-.4-.07a1.63,1.63,0,0,1-.6-.27,1.75,1.75,0,0,1-.49-2.36,3,3,0,0,1,.18-.24l.12-.14.23-.28L1.29,90l1.89-2.23L7,83.27,7.19,83l.37,0c22.24-1.5,44.5-2.72,66.77-3.86s44.54-2,66.82-2.78q16.71-.58,33.43-.85c11.15-.2,22.3-.33,33.45-.33s22.3.19,33.45.67c5.57.24,11.14.6,16.7,1.19,2.77.3,5.55.66,8.3,1.21a30.48,30.48,0,0,1,4.07,1.07,9,9,0,0,1,1.92.94,2.8,2.8,0,0,1,.78.79,1.44,1.44,0,0,1,.12,1.15v0Zm-.2-.12.4-3.56h0v0a1.08,1.08,0,0,0-.12-.86,2.33,2.33,0,0,0-.7-.66,8.52,8.52,0,0,0-1.84-.84,30.68,30.68,0,0,0-4-1c-2.73-.47-5.5-.75-8.27-1-5.54-.45-11.11-.64-16.67-.8-11.13-.28-22.27-.23-33.4-.08-22.28.22-44.55,1-66.81,1.77S96.7,80.46,74.44,81.41,29.92,83.54,7.66,84.68l.6-.3L4.43,88.8,2.51,91l-.88,1a.18.18,0,0,0,.05.24.09.09,0,0,0,.06,0l.31.06.72.13,1.44.26,2.87.52,5.76,1,23,4.16c15.34,2.81,30.7,5.5,46.06,8.21l23.06,4q11.53,2,23.07,3.87l46.16,7.63.22,0,.17.12a21.53,21.53,0,0,1,3.35,3,17.62,17.62,0,0,1,1.41,1.79,15.68,15.68,0,0,1,1.1,2,14.85,14.85,0,0,1,1,9,26,26,0,0,1-3.14,8.3,38.3,38.3,0,0,1-5.21,7.11l-1.28-1.57,25.41-16.27,25.33-16.38q12.66-8.2,25.24-16.53C256.19,97.15,264.61,91.53,272.66,85.65Z"/><path class="cls-1" d="M152,57c-.22-.49-13.1,8.49-13.82,9.08a64.15,64.15,0,0,0-11.94,12.58c-1.48,2.1-8.92,13-4.21,14.3a4.73,4.73,0,0,0,2.3-.09c4.2-.93,8-3,11.83-5A60.82,60.82,0,0,0,145.8,81c3.65-3,7.22-6.1,10.75-9.24L158,70.49Z"/><path class="cls-2" d="M151.87,57.07c.08.08.06,0,0,0l-.07,0-.16.07-.32.16-.62.37-1.24.78c-.8.54-1.6,1.11-2.39,1.68-1.57,1.16-3.11,2.37-4.64,3.58l-2.29,1.82-1.13.91-.27.22-.25.22-.53.48c-1.43,1.3-2.84,2.61-4.22,3.95A72.33,72.33,0,0,0,126,79.94a38.92,38.92,0,0,0-3.18,4.85,16,16,0,0,0-2,5.33c-.09.9.07,1.85.74,2.2a3.3,3.3,0,0,0,2.48,0,28.75,28.75,0,0,0,5.33-2c1.72-.84,3.4-1.79,5.09-2.74a47.44,47.44,0,0,0,4.88-3c3.11-2.21,6-4.78,9-7.3,1.5-1.24,3-2.51,4.49-3.73l4.57-3.64-.2,1c-.85-2.31-1.69-4.63-2.56-6.93S152.85,59.32,151.87,57.07Zm.21-.1c1,2.23,2.07,4.46,3.22,6.64s2.3,4.35,3.45,6.54l.26.48-.46.47c-2.71,2.84-5.69,5.38-8.62,8-1.47,1.29-2.93,2.58-4.47,3.81s-3.15,2.4-4.82,3.5a47.5,47.5,0,0,1-5.17,3,58.52,58.52,0,0,1-5.39,2.47,33.47,33.47,0,0,1-5.75,1.65,4.22,4.22,0,0,1-3.21-.4,2.36,2.36,0,0,1-1-1.44,4.32,4.32,0,0,1,0-1.6,19.69,19.69,0,0,1,2.08-5.58c.89-1.76,1.87-3.47,2.88-5.16a48.7,48.7,0,0,1,7.26-9.36A45.87,45.87,0,0,1,136.8,66l.59-.45.32-.25.32-.21c.41-.28.83-.53,1.25-.79l2.51-1.52,5.05-3,2.51-1.51,1.26-.76.64-.36.33-.17.18-.07.11,0S152,56.83,152.08,57Z"/><path class="cls-1" d="M158.59,62.45c1.72,3.74,1.59,7.46-.28,8.32s-4.77-1.48-6.49-5.21-1.59-7.46.28-8.32S156.87,58.71,158.59,62.45Z"/><path class="cls-2" d="M158.63,62.43A16.9,16.9,0,0,1,160,66.76a6,6,0,0,1-.07,2.35A2.5,2.5,0,0,1,156,70.82a7.49,7.49,0,0,1-1.8-1.45,16.42,16.42,0,0,1-2.63-3.71,12.16,12.16,0,0,1-1.37-4.4,7.11,7.11,0,0,1,.14-2.38A2.63,2.63,0,0,1,154.45,57a6.27,6.27,0,0,1,1.83,1.51A17.09,17.09,0,0,1,158.63,62.43Zm-.08,0a10.48,10.48,0,0,0-2.67-3.53,7.55,7.55,0,0,0-1.78-1.16,1.85,1.85,0,0,0-2.86,1.33,6.33,6.33,0,0,0-.19,2.09,14.19,14.19,0,0,0,1,4.26,10.85,10.85,0,0,0,2.39,3.71,5.84,5.84,0,0,0,1.81,1.22,2.33,2.33,0,0,0,1.93.06,2.38,2.38,0,0,0,1.07-1.54,7.68,7.68,0,0,0,.26-2.11A10.37,10.37,0,0,0,158.55,62.47Z"/><path class="cls-1" d="M158.59,62.45c1.72,3.74,1.59,7.46-.28,8.32s-4.77-1.48-6.49-5.21-1.59-7.46.28-8.32S156.87,58.71,158.59,62.45Z"/><path class="cls-2" d="M158.64,62.43a18.38,18.38,0,0,1,1.49,4.32,5.73,5.73,0,0,1,0,2.4A2.58,2.58,0,0,1,156,70.89a7.64,7.64,0,0,1-1.79-1.49,17.49,17.49,0,0,1-2.67-3.71,11.61,11.61,0,0,1-1.43-4.42,7.16,7.16,0,0,1,.13-2.43,2.77,2.77,0,0,1,4.27-1.93,5.93,5.93,0,0,1,1.83,1.56A18.39,18.39,0,0,1,158.64,62.43Zm-.1,0A9.93,9.93,0,0,0,155.81,59,7.74,7.74,0,0,0,154,57.9a1.73,1.73,0,0,0-2.66,1.25,6.24,6.24,0,0,0-.2,2,14.48,14.48,0,0,0,.93,4.24,9.93,9.93,0,0,0,2.36,3.71,5.44,5.44,0,0,0,1.81,1.18,2.19,2.19,0,0,0,1.84,0,2.36,2.36,0,0,0,1-1.46,8.63,8.63,0,0,0,.29-2.08A9.83,9.83,0,0,0,158.54,62.48Z"/><path class="cls-1" d="M157.29,63.05c1.06,2.3,1,4.59-.17,5.12s-2.94-.91-4-3.21-1-4.59.17-5.12S156.23,60.75,157.29,63.05Z"/><path class="cls-2" d="M157.33,63a11.84,11.84,0,0,1,.95,2.66,3.3,3.3,0,0,1,0,1.5,1.63,1.63,0,0,1-2.6,1.09,5.27,5.27,0,0,1-1.11-.93,12.5,12.5,0,0,1-1.66-2.29,7.17,7.17,0,0,1-.91-2.73,4.42,4.42,0,0,1,.07-1.53,1.77,1.77,0,0,1,2.74-1.23,3.62,3.62,0,0,1,1.13,1A12.36,12.36,0,0,1,157.33,63Zm-.08,0A5.7,5.7,0,0,0,155.54,61c-.68-.52-1.54-1-2.06-.71s-.73,1.18-.68,2a9.14,9.14,0,0,0,.54,2.59,5.77,5.77,0,0,0,1.43,2.29c.62.6,1.62,1,2.2.7s.73-1.26.78-2.12A5.74,5.74,0,0,0,157.25,63.07Z"/><path class="cls-1" d="M154.79,63.75a6.91,6.91,0,0,0-2.27-2.87,6.3,6.3,0,0,0,.6,4.08,7,7,0,0,0,2.27,2.87A6.31,6.31,0,0,0,154.79,63.75Z"/><path class="cls-2" d="M154.77,63.76A7.29,7.29,0,0,0,152.46,61l.18-.07a4.6,4.6,0,0,0-.12,1.92,6.43,6.43,0,0,0,.57,1.87,7.52,7.52,0,0,0,2.38,3l-.22.08a5.47,5.47,0,0,0,.08-2A6.77,6.77,0,0,0,154.77,63.76Zm0,0a10.43,10.43,0,0,1,.73,2,4.31,4.31,0,0,1,0,2.14l-.05.2-.17-.11a6.85,6.85,0,0,1-2.35-3.2,10.68,10.68,0,0,1-.55-1.91,4.65,4.65,0,0,1,0-2l0-.16.14.09a4.78,4.78,0,0,1,1.32,1.33A10.41,10.41,0,0,1,154.8,63.75Z"/><path class="cls-1" d="M211.09,54.81c-.22-.49-13.11,8.49-13.83,9.08a63.81,63.81,0,0,0-11.93,12.58c-1.49,2.1-8.93,13-4.22,14.3a4.72,4.72,0,0,0,2.3-.09c4.2-.93,8.05-3,11.84-5a61.47,61.47,0,0,0,9.67-6.81q5.46-4.52,10.74-9.24c.53-.47.92-.84,1.45-1.32Z"/><path class="cls-2" d="M211,54.85c.07.09,0,0,0,.06l-.07,0-.15.07-.32.16-.63.37-1.23.78c-.81.54-1.6,1.11-2.4,1.68-1.57,1.16-3.1,2.36-4.63,3.58l-2.29,1.82-1.13.91-.28.22-.24.22-.54.48c-1.43,1.3-2.83,2.61-4.22,4a72.25,72.25,0,0,0-7.73,8.56A39,39,0,0,0,182,82.58a15.91,15.91,0,0,0-2,5.33c-.09.9.07,1.85.75,2.2a3.27,3.27,0,0,0,2.47,0,28.57,28.57,0,0,0,5.34-2.05c1.72-.84,3.4-1.79,5.09-2.74a50.27,50.27,0,0,0,4.87-3c3.11-2.21,6-4.78,9-7.3,1.49-1.24,3-2.51,4.49-3.73l4.57-3.64-.2,1c-.86-2.3-1.69-4.62-2.57-6.93S212,57.11,211,54.85Zm.2-.09c1,2.23,2.08,4.45,3.22,6.63s2.3,4.36,3.46,6.54l.25.49-.45.47c-2.72,2.84-5.7,5.37-8.62,8-1.48,1.29-2.94,2.58-4.48,3.81s-3.15,2.4-4.81,3.49a47,47,0,0,1-5.18,3,54.83,54.83,0,0,1-5.39,2.46,31.76,31.76,0,0,1-5.75,1.65,4.15,4.15,0,0,1-3.2-.39,2.36,2.36,0,0,1-1-1.44,4.33,4.33,0,0,1,0-1.6,19.69,19.69,0,0,1,2.08-5.58c.9-1.76,1.87-3.47,2.88-5.16a49.16,49.16,0,0,1,7.27-9.36,45.76,45.76,0,0,1,4.44-3.92l.59-.45.33-.25.31-.21c.42-.28.84-.53,1.25-.79l2.52-1.52,5.05-3,2.5-1.51,1.26-.76.64-.36.34-.17.18-.07.1,0S211.07,54.62,211.19,54.76Z"/><path class="cls-1" d="M217.79,60.24c1.71,3.74,1.59,7.46-.28,8.32s-4.77-1.48-6.49-5.21-1.59-7.46.28-8.32S216.07,56.5,217.79,60.24Z"/><path class="cls-2" d="M217.82,60.22a16.52,16.52,0,0,1,1.41,4.33,5.66,5.66,0,0,1-.07,2.35,2.78,2.78,0,0,1-1.5,2,2.84,2.84,0,0,1-2.43-.27,7.69,7.69,0,0,1-1.8-1.45,16.07,16.07,0,0,1-2.62-3.71,12,12,0,0,1-1.37-4.4,7.11,7.11,0,0,1,.14-2.38,3,3,0,0,1,1.53-2.06,3,3,0,0,1,2.54.21,6.1,6.1,0,0,1,1.82,1.51A16.34,16.34,0,0,1,217.82,60.22Zm-.07,0a10.38,10.38,0,0,0-2.68-3.53,6.89,6.89,0,0,0-1.78-1.16,2.21,2.21,0,0,0-1.8-.13,2.17,2.17,0,0,0-1.05,1.46,6.3,6.3,0,0,0-.2,2.09,14.5,14.5,0,0,0,1,4.26,10.73,10.73,0,0,0,2.4,3.71,5.72,5.72,0,0,0,1.81,1.22,2.35,2.35,0,0,0,1.92.06,2.43,2.43,0,0,0,1.08-1.54,8.08,8.08,0,0,0,.26-2.11A10.53,10.53,0,0,0,217.75,60.26Z"/><path class="cls-1" d="M217.79,60.24c1.71,3.74,1.59,7.46-.28,8.32s-4.77-1.48-6.49-5.21-1.59-7.46.28-8.32S216.07,56.5,217.79,60.24Z"/><path class="cls-2" d="M217.84,60.22a17.92,17.92,0,0,1,1.48,4.32,5.68,5.68,0,0,1,0,2.39,2.57,2.57,0,0,1-4.08,1.75,8.17,8.17,0,0,1-1.8-1.49,18.07,18.07,0,0,1-2.66-3.71,11.61,11.61,0,0,1-1.43-4.42,7.16,7.16,0,0,1,.12-2.43A3.14,3.14,0,0,1,211,54.47a3.08,3.08,0,0,1,2.67.23,6,6,0,0,1,1.83,1.56A18.81,18.81,0,0,1,217.84,60.22Zm-.11,0A10,10,0,0,0,215,56.79a8,8,0,0,0-1.78-1.1,1.72,1.72,0,0,0-2.65,1.25,6,6,0,0,0-.2,2,14.79,14.79,0,0,0,.92,4.24,10.05,10.05,0,0,0,2.36,3.71,5.65,5.65,0,0,0,1.81,1.18,2.19,2.19,0,0,0,1.84,0,2.38,2.38,0,0,0,1-1.46,8.63,8.63,0,0,0,.29-2.08A9.77,9.77,0,0,0,217.73,60.26Z"/><path class="cls-1" d="M216.49,60.84c1,2.3,1,4.59-.17,5.12s-2.94-.91-4-3.21-1-4.59.17-5.12S215.43,58.54,216.49,60.84Z"/><path class="cls-2" d="M216.52,60.82a12.38,12.38,0,0,1,1,2.66,3.45,3.45,0,0,1,0,1.5,1.78,1.78,0,0,1-1,1.3,1.79,1.79,0,0,1-1.58-.21,5.07,5.07,0,0,1-1.11-.93,12.05,12.05,0,0,1-1.66-2.29,7,7,0,0,1-.92-2.73,4.68,4.68,0,0,1,.07-1.53,2,2,0,0,1,1-1.38,2,2,0,0,1,1.7.15,3.55,3.55,0,0,1,1.14,1A11.84,11.84,0,0,1,216.52,60.82Zm-.07,0a5.8,5.8,0,0,0-1.71-2.11c-.68-.52-1.54-1-2.06-.71s-.73,1.18-.69,2a9.5,9.5,0,0,0,.54,2.59A6,6,0,0,0,214,64.94c.63.6,1.63,1,2.21.7s.72-1.26.77-2.12A5.7,5.7,0,0,0,216.45,60.86Z"/><path class="cls-1" d="M214,61.54a7,7,0,0,0-2.26-2.87,6.24,6.24,0,0,0,.6,4.08,6.91,6.91,0,0,0,2.26,2.87A6.25,6.25,0,0,0,214,61.54Z"/><path class="cls-2" d="M214,61.55a7.31,7.31,0,0,0-2.32-2.78l.18-.07a4.94,4.94,0,0,0-.12,1.92,6.45,6.45,0,0,0,.58,1.87,7.44,7.44,0,0,0,2.38,3l-.23.08a5.3,5.3,0,0,0,.08-2A7.09,7.09,0,0,0,214,61.55Zm0,0a11.52,11.52,0,0,1,.72,2,4.31,4.31,0,0,1,0,2.14l-.06.2-.17-.11a6.85,6.85,0,0,1-2.35-3.2,9.88,9.88,0,0,1-.54-1.91,4.5,4.5,0,0,1,0-2l0-.16.15.09a4.61,4.61,0,0,1,1.31,1.33A11.8,11.8,0,0,1,214,61.53Z"/><path class="cls-1" d="M315.23,130.46c.24.33-10.68,5.64-11.34,5.9a49.62,49.62,0,0,1-13,3.31c-2,.2-12.14,1.12-11.25-2.56a3.61,3.61,0,0,1,.93-1.51,36.22,36.22,0,0,1,7.87-6.08,46.6,46.6,0,0,1,8.24-4c3.4-1.33,6.84-2.57,10.29-3.77l1.43-.48Z"/><path class="cls-2" d="M315.33,130.4c.05.15,0,.16,0,.19l-.07.07-.12.09-.23.17-.49.3-1,.56-2,1.14-3.89,2.35c-.64.4-1.29.79-1.95,1.16-.33.19-.66.39-1,.57l-.27.13-.29.14-.53.23a32.79,32.79,0,0,1-4.33,1.55,35.63,35.63,0,0,1-9.11,1.27c-1.53,0-3.05,0-4.58,0a15.83,15.83,0,0,1-4.58-.71,3.44,3.44,0,0,1-1.1-.64,2,2,0,0,1-.65-1.25,3.34,3.34,0,0,1,.95-2.4,25,25,0,0,1,3.27-3.32,42,42,0,0,1,3.68-2.76,35.76,35.76,0,0,1,4-2.4c1.37-.72,2.77-1.37,4.18-2s2.83-1.08,4.26-1.59c2.87-1,5.71-2,8.68-2.72l.65-.16.28.45c1,1.63,2,3.26,3,4.87S314.21,128.86,315.33,130.4Zm-.2.12c-1.15-1.51-2.33-3-3.59-4.44s-2.54-2.85-3.8-4.27l.94.29c-1.39.59-2.76,1.21-4.16,1.77s-2.8,1.1-4.2,1.64c-2.81,1.07-5.64,2-8.3,3.28a37.52,37.52,0,0,0-3.87,2.12c-1.28.77-2.56,1.53-3.78,2.35A22.25,22.25,0,0,0,281,136a2.42,2.42,0,0,0-.9,1.6c0,.53.5,1,1.13,1.26a11.89,11.89,0,0,0,4.32.66,27.85,27.85,0,0,0,4.46-.36,61.47,61.47,0,0,0,8.64-2.09c1.42-.43,2.83-.87,4.24-1.33s2.77-1.06,4.17-1.57,2.82-1.1,4.2-1.7c.69-.31,1.37-.63,2-1l1-.54.49-.28.23-.15.1-.08S315.12,130.36,315.13,130.52Z"/><path class="cls-1" d="M313.91,124.4c-1.87-2.56-4.43-3.89-5.72-3s-.8,3.78,1.07,6.35,4.43,3.89,5.72,3S315.78,127,313.91,124.4Z"/><path class="cls-2" d="M313.87,124.43a7.56,7.56,0,0,0-2.58-2.23c-1-.5-2.12-.93-2.89-.46a1.72,1.72,0,0,0-.68,1.26,4.08,4.08,0,0,0,.12,1.66,7.88,7.88,0,0,0,1.61,3,11.52,11.52,0,0,0,2.51,2.23c.89.57,2.08,1,2.75.49a1.61,1.61,0,0,0,.56-1.19,5.87,5.87,0,0,0-.07-1.61A7.76,7.76,0,0,0,313.87,124.43Zm.07-.05a13.77,13.77,0,0,1,1.8,3,4.67,4.67,0,0,1,.36,1.83,2.12,2.12,0,0,1-2.9,2.14,5.79,5.79,0,0,1-1.69-.83,9.21,9.21,0,0,1-2.44-2.62,13.73,13.73,0,0,1-1.5-3.2,6.15,6.15,0,0,1-.32-1.77,2,2,0,0,1,2.7-2.09,4.41,4.41,0,0,1,1.63.87A14,14,0,0,1,313.94,124.38Z"/><path class="cls-1" d="M313.82,123.85c-1.87-2.57-4.43-3.89-5.72-2.95s-.8,3.78,1.07,6.34,4.44,3.89,5.72,3S315.69,126.42,313.82,123.85Z"/><path class="cls-2" d="M313.77,123.88a7.1,7.1,0,0,0-2.62-2.16c-1-.46-2.09-.84-2.77-.44a1.65,1.65,0,0,0-.67,1.17,4.21,4.21,0,0,0,.08,1.65,7.37,7.37,0,0,0,1.63,3,11.65,11.65,0,0,0,2.52,2.16c.88.56,2.05.89,2.59.48s.63-1.59.49-2.65A7.24,7.24,0,0,0,313.77,123.88Zm.1-.06a16.13,16.13,0,0,1,1.87,3,4.6,4.6,0,0,1,.41,1.86,2.54,2.54,0,0,1-.9,2,2.51,2.51,0,0,1-2.18.29,5.78,5.78,0,0,1-1.72-.86,8.89,8.89,0,0,1-2.43-2.69,15.19,15.19,0,0,1-1.48-3.23,6.62,6.62,0,0,1-.36-1.79,2.06,2.06,0,0,1,2.82-2.21,4.39,4.39,0,0,1,1.64.92A16.35,16.35,0,0,1,313.87,123.82Z"/><path class="cls-1" d="M312.93,124.5c-1.16-1.58-2.73-2.39-3.52-1.82s-.5,2.33.66,3.91,2.73,2.4,3.52,1.82S314.08,126.08,312.93,124.5Z"/><path class="cls-2" d="M312.89,124.53a4.19,4.19,0,0,0-1.63-1.3c-.61-.27-1.28-.47-1.64-.26s-.55,1-.38,1.68a4.18,4.18,0,0,0,1,1.8,7.59,7.59,0,0,0,1.56,1.3c.54.34,1.24.51,1.51.29s.36-.9.3-1.55A4.15,4.15,0,0,0,312.89,124.53Zm.07,0a10.89,10.89,0,0,1,1.2,1.85,2.65,2.65,0,0,1,.27,1.17,1.45,1.45,0,0,1-2,1.47,3.33,3.33,0,0,1-1.08-.55,5.22,5.22,0,0,1-1.49-1.69,10.68,10.68,0,0,1-.91-2,4.38,4.38,0,0,1-.24-1.11,1.33,1.33,0,0,1,1.8-1.42,2.59,2.59,0,0,1,1,.59A11.16,11.16,0,0,1,313,124.48Z"/><path class="cls-1" d="M311.51,125.93a5.36,5.36,0,0,1,1.08,2.61,4.84,4.84,0,0,1-2.52-1.95A5.38,5.38,0,0,1,309,124,4.85,4.85,0,0,1,311.51,125.93Z"/><path class="cls-2" d="M311.52,125.92a5.09,5.09,0,0,1,1.19,2.61v.17l-.16,0a3.67,3.67,0,0,1-1.34-.78,8.63,8.63,0,0,1-1.09-1.09,5.19,5.19,0,0,1-1.3-2.8v-.2l.2,0a3.32,3.32,0,0,1,1.45.82A10.47,10.47,0,0,1,311.52,125.92Zm0,0a5.09,5.09,0,0,0-1.16-1.11,4.41,4.41,0,0,0-1.39-.69l.18-.16a6,6,0,0,0,1.11,2.73,4.07,4.07,0,0,0,2.38,1.72l-.15.13A5.81,5.81,0,0,0,311.5,125.93Z"/><path class="cls-1" d="M313.49,156.54c.25.34-10.67,5.65-11.34,5.91a49.42,49.42,0,0,1-13,3.31c-2,.2-12.13,1.12-11.24-2.56a3.69,3.69,0,0,1,.92-1.51,36.5,36.5,0,0,1,7.87-6.09,47.61,47.61,0,0,1,8.24-3.95c3.41-1.33,6.84-2.57,10.29-3.77l1.44-.48Z"/><path class="cls-2" d="M313.59,156.49c.05.15,0,.16,0,.19a.34.34,0,0,1-.06.06l-.12.1-.24.16-.49.3-1,.57-2,1.14-3.89,2.35c-.65.4-1.3.79-2,1.16-.33.19-.66.39-1,.57l-.26.13-.3.14-.52.23a32.93,32.93,0,0,1-4.34,1.55,36,36,0,0,1-9.11,1.27c-1.53,0-3.05,0-4.58,0a15.83,15.83,0,0,1-4.58-.71,3.44,3.44,0,0,1-1.1-.64,2,2,0,0,1-.65-1.25,3.38,3.38,0,0,1,.95-2.4,26.39,26.39,0,0,1,3.27-3.33,43.44,43.44,0,0,1,3.68-2.75,36.78,36.78,0,0,1,4-2.41c1.37-.71,2.77-1.36,4.18-1.95s2.84-1.08,4.27-1.59c2.87-1,5.71-2,8.67-2.73l.65-.15.28.45c1,1.63,2,3.26,3,4.87S312.48,155,313.59,156.49Zm-.19.11c-1.16-1.5-2.34-3-3.6-4.43s-2.53-2.85-3.79-4.27l.93.29c-1.38.59-2.76,1.21-4.15,1.77s-2.8,1.09-4.2,1.64c-2.82,1.07-5.65,2-8.31,3.28a40.6,40.6,0,0,0-3.87,2.11c-1.28.78-2.55,1.54-3.78,2.36a21.67,21.67,0,0,0-3.41,2.76,2.51,2.51,0,0,0-.9,1.6c0,.53.5,1,1.14,1.26a11.84,11.84,0,0,0,4.31.66,27.76,27.76,0,0,0,4.46-.36,63.38,63.38,0,0,0,8.65-2.09c1.41-.43,2.82-.87,4.24-1.33s2.77-1.06,4.17-1.57,2.81-1.1,4.2-1.7c.68-.32,1.37-.63,2-1l1-.54.48-.28.23-.15.1-.08S313.38,156.45,313.4,156.6Z"/><path class="cls-1" d="M312.41,149.92c-1.87-2.56-4.43-3.89-5.72-2.95s-.8,3.78,1.07,6.35,4.44,3.89,5.72,3S314.28,152.49,312.41,149.92Z"/><path class="cls-2" d="M312.38,150a7.69,7.69,0,0,0-2.59-2.23c-1-.5-2.12-.93-2.89-.46a1.73,1.73,0,0,0-.68,1.26,4.26,4.26,0,0,0,.12,1.66,7.88,7.88,0,0,0,1.61,3,11.52,11.52,0,0,0,2.51,2.23c.89.57,2.08,1,2.75.49a1.62,1.62,0,0,0,.57-1.19,6.31,6.31,0,0,0-.08-1.61A7.74,7.74,0,0,0,312.38,150Zm.07,0a14.14,14.14,0,0,1,1.79,3,4.67,4.67,0,0,1,.36,1.83,2.12,2.12,0,0,1-2.9,2.14,5.79,5.79,0,0,1-1.69-.83,9.12,9.12,0,0,1-2.44-2.63,13.48,13.48,0,0,1-1.5-3.19,6.15,6.15,0,0,1-.32-1.77,2.27,2.27,0,0,1,.73-1.81,2.22,2.22,0,0,1,2-.28,4.31,4.31,0,0,1,1.62.87A14,14,0,0,1,312.45,149.9Z"/><path class="cls-1" d="M312.41,149.92c-1.87-2.56-4.43-3.89-5.72-2.95s-.8,3.78,1.07,6.35,4.44,3.89,5.72,3S314.28,152.49,312.41,149.92Z"/><path class="cls-2" d="M312.36,150a7.13,7.13,0,0,0-2.62-2.17c-1-.46-2.09-.84-2.77-.44a1.65,1.65,0,0,0-.67,1.17,4.2,4.2,0,0,0,.08,1.65,7.3,7.3,0,0,0,1.63,3,12,12,0,0,0,2.52,2.17c.88.56,2.05.88,2.59.48s.63-1.6.49-2.66A7.15,7.15,0,0,0,312.36,150Zm.1-.07a16.21,16.21,0,0,1,1.87,3,4.53,4.53,0,0,1,.41,1.86,2.54,2.54,0,0,1-.9,2,2.51,2.51,0,0,1-2.18.29,5.55,5.55,0,0,1-1.72-.86,8.89,8.89,0,0,1-2.43-2.69,15.19,15.19,0,0,1-1.48-3.23,6.54,6.54,0,0,1-.36-1.79,2.32,2.32,0,0,1,.74-1.89,2.29,2.29,0,0,1,2.08-.31,4.14,4.14,0,0,1,1.64.92A15.89,15.89,0,0,1,312.46,149.89Z"/><path class="cls-1" d="M311.52,150.57c-1.16-1.58-2.73-2.39-3.52-1.81s-.5,2.32.65,3.9,2.74,2.4,3.53,1.82S312.67,152.16,311.52,150.57Z"/><path class="cls-2" d="M311.48,150.6a4.19,4.19,0,0,0-1.63-1.3c-.61-.26-1.28-.47-1.64-.26s-.55,1-.38,1.68a4.28,4.28,0,0,0,1,1.81,7.87,7.87,0,0,0,1.56,1.29c.54.34,1.24.51,1.51.29s.36-.9.3-1.55A4.19,4.19,0,0,0,311.48,150.6Zm.07,0a10.6,10.6,0,0,1,1.2,1.86,2.57,2.57,0,0,1,.27,1.16,1.46,1.46,0,0,1-2,1.47,3.53,3.53,0,0,1-1.08-.54,5.35,5.35,0,0,1-1.49-1.7,10.89,10.89,0,0,1-.91-2,4.46,4.46,0,0,1-.24-1.12,1.33,1.33,0,0,1,1.8-1.42,2.49,2.49,0,0,1,1,.6A10.63,10.63,0,0,1,311.55,150.55Z"/><path class="cls-1" d="M310.1,152a5.36,5.36,0,0,1,1.08,2.61,4.85,4.85,0,0,1-2.53-2,5.42,5.42,0,0,1-1.08-2.61A4.9,4.9,0,0,1,310.1,152Z"/><path class="cls-2" d="M310.11,152a5.09,5.09,0,0,1,1.19,2.61v.17l-.16,0a3.65,3.65,0,0,1-1.35-.78,9.27,9.27,0,0,1-1.08-1.09,5.13,5.13,0,0,1-1.3-2.8v-.2l.2,0a3.34,3.34,0,0,1,1.45.83A9.65,9.65,0,0,1,310.11,152Zm0,0a5.36,5.36,0,0,0-1.16-1.12,4.41,4.41,0,0,0-1.39-.69l.18-.16a6.06,6.06,0,0,0,1.11,2.74,4.1,4.1,0,0,0,2.38,1.71l-.15.13A5.73,5.73,0,0,0,310.09,152Z"/><polygon class="cls-2" points="2.81 88.8 170.84 117.44 2.62 89.92 2.81 88.8"/><line class="cls-4" x1="32.55" y1="94.15" x2="29.38" y2="98.07"/><line class="cls-4" x1="76.94" y1="101.8" x2="74.51" y2="105.53"/><polygon class="cls-2" points="274.35 208.4 248.29 157.66 275.36 207.87 274.35 208.4"/><line class="cls-5" x1="269.13" y1="196.76" x2="265.71" y2="198.47"/><line class="cls-5" x1="260.97" y1="181.2" x2="256.61" y2="183.29"/><polygon class="cls-2" points="92.02 204.35 45.98 185.14 92.86 202.23 92.02 204.35"/><polygon class="cls-2" points="99.69 208.82 113.15 226.17 97.96 210.31 99.69 208.82"/><polygon class="cls-2" points="397.08 4.83 346.68 37.24 396.46 3.87 397.08 4.83"/><polygon class="cls-2" points="94.57 79.4 41.8 123.5 93.83 78.53 94.57 79.4"/><polygon class="cls-2" points="105.06 78.64 84.09 96.93 104.29 77.79 105.06 78.64"/><polygon class="cls-2" points="80.73 79.76 44.04 112.27 79.96 78.91 80.73 79.76"/><polygon class="cls-2" points="291.38 144.2 229.69 181.52 290.78 143.23 291.38 144.2"/><polygon class="cls-2" points="290.99 149.65 267.16 163.99 290.38 148.68 290.99 149.65"/><polygon class="cls-2" points="291.19 140.16 258.13 159.56 290.6 139.18 291.19 140.16"/><polygon class="cls-2" points="97.81 153.31 66.6 176.9 97.11 152.41 97.81 153.31"/><polygon class="cls-2" points="93.25 149.53 83.04 156.41 92.57 148.61 93.25 149.53"/><polygon class="cls-2" points="70.18 184.47 40.03 202.2 69.59 183.5 70.18 184.47"/><polygon class="cls-2" points="77.01 185.48 52.93 199.42 76.42 184.51 77.01 185.48"/><polygon class="cls-2" points="118.02 212.54 92.91 228.26 117.39 211.59 118.02 212.54"/><polygon class="cls-2" points="118.27 216.84 100.75 227.75 117.64 215.89 118.27 216.84"/><path class="cls-2" d="M320.43,41.35a4.08,4.08,0,0,1,1,1,1.35,1.35,0,0,1,.13,1.42,4.44,4.44,0,0,1-.95,1.1c-.34.32-.69.64-1.05.94a19.23,19.23,0,0,1-4.72,3,3.13,3.13,0,0,1-.77.27,1.41,1.41,0,0,1-.93-.16,4.62,4.62,0,0,1-1.11-1c-.62-.69-1.24-1.38-1.89-2-1.29-1.33-2.66-2.58-4.05-3.81l-1-.91A4.1,4.1,0,0,1,304,40a1.32,1.32,0,0,1,0-1,3.17,3.17,0,0,1,.45-.69c.32-.36.64-.72,1-1.07s.74-.65,1.16-.93a6.53,6.53,0,0,1,1.34-.69,5.89,5.89,0,0,1,3-.32,10.92,10.92,0,0,1,5.14,2.56C317.59,39,318.92,40.28,320.43,41.35Zm-.07.1a52.2,52.2,0,0,0-4.66-3,14.69,14.69,0,0,0-4.89-2A5.79,5.79,0,0,0,306.19,38l-.94.94c-.33.31-.47.59-.4.73a5.05,5.05,0,0,0,.77.93l.94,1c1.25,1.37,2.52,2.71,3.87,4,.67.64,1.37,1.25,2.08,1.85a4.13,4.13,0,0,0,1,.76c.3.12.5,0,.93-.23,1.6-.89,3.16-1.81,4.73-2.77l1.15-.76a4.06,4.06,0,0,0,1-.86,1,1,0,0,0,0-1.19A3.48,3.48,0,0,0,320.36,41.45Z"/></g></g></svg>